<?xml version="1.0" encoding="UTF-8"?>
<svg width="700pt" height="700pt" version="1.1" viewBox="0 0 700 700" xmlns="http://www.w3.org/2000/svg" xmlns:xlink="http://www.w3.org/1999/xlink">
 <defs>
  <symbol id="l" overflow="visible">
   <path d="m29.312-1.75c-1.5117 0.78125-3.0898 1.3711-4.7344 1.7656-1.6367 0.40625-3.3398 0.60938-5.1094 0.60938-5.3125 0-9.5273-1.4844-12.641-4.4531-3.1055-2.9688-4.6562-7-4.6562-12.094s1.5508-9.125 4.6562-12.094c3.1133-2.9688 7.3281-4.4531 12.641-4.4531 1.7695 0 3.4727 0.19922 5.1094 0.59375 1.6445 0.39844 3.2227 0.99219 4.7344 1.7812v6.5938c-1.5312-1.0391-3.0391-1.8008-4.5156-2.2812-1.4805-0.48828-3.0391-0.73438-4.6719-0.73438-2.9375 0-5.2461 0.94531-6.9219 2.8281-1.6797 1.875-2.5156 4.4648-2.5156 7.7656 0 3.293 0.83594 5.8828 2.5156 7.7656 1.6758 1.875 3.9844 2.8125 6.9219 2.8125 1.6328 0 3.1914-0.23828 4.6719-0.71875 1.4766-0.48828 2.9844-1.2539 4.5156-2.2969z"/>
  </symbol>
  <symbol id="d" overflow="visible">
   <path d="m21.453-17.406c-0.67969-0.3125-1.3516-0.53906-2.0156-0.6875-0.65625-0.15625-1.3203-0.23438-1.9844-0.23438-1.9688 0-3.4844 0.63281-4.5469 1.8906-1.0547 1.2617-1.5781 3.0703-1.5781 5.4219v11.016h-7.6562v-23.922h7.6562v3.9219c0.97656-1.5625 2.1016-2.7031 3.375-3.4219 1.2812-0.71875 2.8125-1.0781 4.5938-1.0781 0.25 0 0.52344 0.011719 0.82812 0.03125 0.30078 0.023438 0.73438 0.070312 1.2969 0.14062z"/>
  </symbol>
  <symbol id="c" overflow="visible">
   <path d="m27.562-12.031v2.1875h-17.891c0.1875 1.793 0.83203 3.1367 1.9375 4.0312 1.1133 0.89844 2.6719 1.3438 4.6719 1.3438 1.6016 0 3.25-0.23438 4.9375-0.70312 1.6875-0.47656 3.4219-1.2031 5.2031-2.1719v5.8906c-1.8047 0.6875-3.6094 1.2031-5.4219 1.5469-1.8125 0.35156-3.6211 0.53125-5.4219 0.53125-4.3359 0-7.7031-1.0977-10.109-3.2969-2.3984-2.207-3.5938-5.2969-3.5938-9.2656 0-3.9062 1.1758-6.9727 3.5312-9.2031 2.3633-2.2383 5.6094-3.3594 9.7344-3.3594 3.7578 0 6.7695 1.1367 9.0312 3.4062 2.2578 2.2617 3.3906 5.2812 3.3906 9.0625zm-7.8594-2.5312c0-1.457-0.42969-2.6289-1.2812-3.5156-0.84375-0.89453-1.9492-1.3438-3.3125-1.3438-1.4922 0-2.6992 0.41797-3.625 1.25-0.91797 0.83594-1.4922 2.0391-1.7188 3.6094z"/>
  </symbol>
  <symbol id="a" overflow="visible">
   <path d="m14.391-10.766c-1.5938 0-2.793 0.27344-3.5938 0.8125-0.80469 0.54297-1.2031 1.3398-1.2031 2.3906 0 0.96875 0.32031 1.7305 0.96875 2.2812 0.64453 0.54297 1.5469 0.8125 2.7031 0.8125 1.4375 0 2.6445-0.51562 3.625-1.5469 0.98828-1.0312 1.4844-2.3203 1.4844-3.875v-0.875zm11.688-2.8906v13.656h-7.7031v-3.5469c-1.0312 1.4492-2.1875 2.5078-3.4688 3.1719s-2.8398 1-4.6719 1c-2.4805 0-4.4961-0.72266-6.0469-2.1719-1.543-1.4453-2.3125-3.3203-2.3125-5.625 0-2.8125 0.96094-4.8672 2.8906-6.1719 1.9375-1.3125 4.9688-1.9688 9.0938-1.9688h4.5156v-0.60938c0-1.207-0.48047-2.0938-1.4375-2.6562-0.94922-0.5625-2.4375-0.84375-4.4688-0.84375-1.6367 0-3.1562 0.16797-4.5625 0.5-1.4062 0.32422-2.7188 0.8125-3.9375 1.4688v-5.8281c1.6445-0.40625 3.2891-0.70703 4.9375-0.90625 1.6562-0.20703 3.3047-0.3125 4.9531-0.3125 4.3203 0 7.4375 0.85547 9.3438 2.5625 1.9141 1.6992 2.875 4.4609 2.875 8.2812z"/>
  </symbol>
  <symbol id="b" overflow="visible">
   <path d="m12.031-30.719v6.7969h7.875v5.4688h-7.875v10.141c0 1.1172 0.21875 1.8711 0.65625 2.2656 0.4375 0.38672 1.3125 0.57812 2.625 0.57812h3.9375v5.4688h-6.5625c-3.0234 0-5.1641-0.62891-6.4219-1.8906-1.2617-1.2578-1.8906-3.3984-1.8906-6.4219v-10.141h-3.7969v-5.4688h3.7969v-6.7969z"/>
  </symbol>
  <symbol id="i" overflow="visible">
   <path d="m19.953-20.422v-12.812h7.6875v33.234h-7.6875v-3.4531c-1.0547 1.4062-2.2148 2.4375-3.4844 3.0938-1.2734 0.65625-2.7422 0.98438-4.4062 0.98438-2.9492 0-5.3711-1.1719-7.2656-3.5156-1.8867-2.3438-2.8281-5.3594-2.8281-9.0469s0.94141-6.7031 2.8281-9.0469c1.8945-2.3438 4.3164-3.5156 7.2656-3.5156 1.6562 0 3.1172 0.33594 4.3906 1 1.2812 0.65625 2.4453 1.6836 3.5 3.0781zm-5.0469 15.484c1.6445 0 2.8945-0.59766 3.75-1.7969 0.86328-1.1953 1.2969-2.9297 1.2969-5.2031 0-2.2812-0.43359-4.0195-1.2969-5.2188-0.85547-1.1953-2.1055-1.7969-3.75-1.7969-1.625 0-2.8711 0.60156-3.7344 1.7969-0.85547 1.1992-1.2812 2.9375-1.2812 5.2188 0 2.2734 0.42578 4.0078 1.2812 5.2031 0.86328 1.1992 2.1094 1.7969 3.7344 1.7969z"/>
  </symbol>
  <symbol id="h" overflow="visible">
   <path d="m16.406-4.9375c1.6328 0 2.8828-0.59766 3.75-1.7969 0.86328-1.1953 1.2969-2.9297 1.2969-5.2031 0-2.2812-0.43359-4.0195-1.2969-5.2188-0.86719-1.1953-2.1172-1.7969-3.75-1.7969-1.6367 0-2.8906 0.60547-3.7656 1.8125-0.875 1.1992-1.3125 2.9336-1.3125 5.2031 0 2.2617 0.4375 3.9961 1.3125 5.2031 0.875 1.1992 2.1289 1.7969 3.7656 1.7969zm-5.0781-15.484c1.0508-1.3945 2.2188-2.4219 3.5-3.0781 1.2812-0.66406 2.7539-1 4.4219-1 2.9453 0 5.3672 1.1719 7.2656 3.5156 1.8945 2.3438 2.8438 5.3594 2.8438 9.0469s-0.94922 6.7031-2.8438 9.0469c-1.8984 2.3438-4.3203 3.5156-7.2656 3.5156-1.668 0-3.1406-0.33594-4.4219-1s-2.4492-1.6914-3.5-3.0781v3.4531h-7.6562v-33.234h7.6562z"/>
  </symbol>
  <symbol id="g" overflow="visible">
   <path d="m0.53125-23.922h7.6562l6.4219 16.234 5.4688-16.234h7.6562l-10.062 26.188c-1.0117 2.6641-2.1953 4.5234-3.5469 5.5781-1.3438 1.0625-3.1211 1.5938-5.3281 1.5938h-4.4219v-5.0156h2.3906c1.3008 0 2.2422-0.21094 2.8281-0.625 0.59375-0.40625 1.0547-1.1484 1.3906-2.2188l0.20312-0.65625z"/>
  </symbol>
  <symbol id="f" overflow="visible">
   <path d="m3.6719-33.234h7.6562v33.234h-7.6562z"/>
  </symbol>
  <symbol id="e" overflow="visible">
   <path d="m22.359-23.172v5.7969c-1.6367-0.67578-3.2148-1.1875-4.7344-1.5312-1.5234-0.34375-2.9609-0.51562-4.3125-0.51562-1.4609 0-2.543 0.18359-3.25 0.54688-0.69922 0.36719-1.0469 0.92188-1.0469 1.6719 0 0.61719 0.26562 1.0898 0.79688 1.4219 0.53125 0.32422 1.4883 0.5625 2.875 0.71875l1.3438 0.1875c3.9141 0.5 6.5508 1.3242 7.9062 2.4688 1.3516 1.1367 2.0312 2.9219 2.0312 5.3594 0 2.5547-0.94531 4.4688-2.8281 5.75-1.875 1.2812-4.6797 1.9219-8.4062 1.9219-1.5859 0-3.2188-0.125-4.9062-0.375s-3.4219-0.625-5.2031-1.125v-5.8125c1.5195 0.74219 3.082 1.2969 4.6875 1.6719 1.6016 0.36719 3.2344 0.54688 4.8906 0.54688 1.4883 0 2.6094-0.20312 3.3594-0.60938 0.75781-0.41406 1.1406-1.0312 1.1406-1.8438 0-0.6875-0.26172-1.1953-0.78125-1.5312-0.52344-0.33203-1.5586-0.59375-3.1094-0.78125l-1.3438-0.17188c-3.4062-0.42578-5.793-1.2109-7.1562-2.3594-1.3672-1.1562-2.0469-2.9102-2.0469-5.2656 0-2.5312 0.86719-4.4062 2.6094-5.625 1.7383-1.2266 4.3984-1.8438 7.9844-1.8438 1.4062 0 2.8828 0.10938 4.4375 0.32812 1.5508 0.21094 3.2383 0.54297 5.0625 1z"/>
  </symbol>
  <symbol id="k" overflow="visible">
   <path d="m11.328-3.4531v12.547h-7.6562v-33.016h7.6562v3.5c1.0508-1.3945 2.2188-2.4219 3.5-3.0781 1.2812-0.66406 2.7539-1 4.4219-1 2.9453 0 5.3672 1.1719 7.2656 3.5156 1.8945 2.3438 2.8438 5.3594 2.8438 9.0469s-0.94922 6.7031-2.8438 9.0469c-1.8984 2.3438-4.3203 3.5156-7.2656 3.5156-1.668 0-3.1406-0.33594-4.4219-1s-2.4492-1.6914-3.5-3.0781zm5.0781-15.5c-1.6367 0-2.8906 0.60547-3.7656 1.8125-0.875 1.1992-1.3125 2.9336-1.3125 5.2031 0 2.2617 0.4375 3.9961 1.3125 5.2031 0.875 1.1992 2.1289 1.7969 3.7656 1.7969 1.6328 0 2.8828-0.59766 3.75-1.7969 0.86328-1.1953 1.2969-2.9297 1.2969-5.2031 0-2.2812-0.43359-4.0195-1.2969-5.2188-0.86719-1.1953-2.1172-1.7969-3.75-1.7969z"/>
  </symbol>
  <symbol id="j" overflow="visible">
   <path d="m3.6719-33.234h7.6562v18.094l8.7969-8.7812h8.8906l-11.688 10.969 12.594 12.953h-9.2656l-9.3281-9.9688v9.9688h-7.6562z"/>
  </symbol>
 </defs>
 <g>
  <path d="m205.63 358.79c16.887 0 30.625-13.738 30.625-30.625 0-16.887-13.738-30.625-30.625-30.625-16.887 0-30.625 13.738-30.625 30.625 0 16.887 13.738 30.625 30.625 30.625zm0-43.75c7.2344 0 13.125 5.8906 13.125 13.125s-5.8906 13.125-13.125 13.125c-7.2344 0-13.125-5.8906-13.125-13.125 0-7.2383 5.8906-13.125 13.125-13.125z"/>
  <path d="m568.75 551.25v-35c0-4.8398-3.9102-8.75-8.75-8.75-4.8281 0-8.75-3.9219-8.75-8.75 0-4.8398-3.9102-8.75-8.75-8.75h-385c-4.8398 0-8.75 3.9102-8.75 8.75 0 4.8281-3.9219 8.75-8.75 8.75-4.8398 0-8.75 3.9102-8.75 8.75v35c0 4.8398 3.9102 8.75 8.75 8.75s8.75-3.9102 8.75-8.75v-27.867c7.4219-2.6406 13.246-8.4688 15.883-15.883h370.73c2.6406 7.4219 8.4688 13.246 15.883 15.883l-0.003906 27.867c0 4.8398 3.9102 8.75 8.75 8.75 4.8359 0 8.7578-3.9102 8.7578-8.75z"/>
  <path d="m78.75 463.75h8.75v87.5c0 4.8398 3.9102 8.75 8.75 8.75s8.75-3.9102 8.75-8.75v-87.5h490v87.5c0 4.8398 3.9102 8.75 8.75 8.75s8.75-3.9102 8.75-8.75v-87.5h8.75c4.8398 0 8.75-3.9102 8.75-8.75v-35c0-4.8398-3.9102-8.75-8.75-8.75h-8.75v-52.5c0-33.766-27.484-61.25-61.25-61.25h-0.007812l-26.242 0.015625v-14.219c31.324-18.184 52.492-52 52.5-90.754v-0.007813-78.785c0-25.961-18.961-47.531-43.75-51.711v-27.039c0-4.8398-3.9102-8.75-8.75-8.75h-70c-0.042969 0-0.078125 0.027344-0.11328 0.027344-48.195 0.058594-87.387 39.277-87.387 87.473v78.766c0 38.762 21.168 72.598 52.5 90.781v14.219l-26.242-0.015625h-0.007812c-33.766 0-61.25 27.484-61.25 61.25v17.535h-8.7422v-122.5c0-14.473-11.777-26.25-26.25-26.25h-183.75c-14.473 0-26.25 11.777-26.25 26.25v148.73c0 3.0781 0.62891 5.9922 1.6094 8.7344l-10.367-0.003906c-4.8398 0-8.75 3.9102-8.75 8.75v35c0 4.8398 3.9102 8.75 8.75 8.75zm376.25-419.98c0.035156 0 0.050781-0.015625 0.085938-0.015625h61.164v26.25c0 4.8398 3.9102 8.75 8.75 8.75 19.301 0 35 15.699 35 35v22.629l-11.312-11.312c-0.12109-0.12109-0.26953-0.15625-0.39453-0.25391-0.46484-0.42188-0.97266-0.69922-1.4961-0.99609-0.48047-0.26953-0.91797-0.57031-1.4258-0.75391-0.52344-0.18359-1.0508-0.21875-1.5938-0.30469-0.57031-0.085937-1.1211-0.19141-1.6875-0.17578-0.53516 0.027344-1.0234 0.18359-1.5469 0.29688-0.58594 0.14844-1.1719 0.26172-1.7344 0.53516-0.14844 0.070313-0.30469 0.0625-0.45312 0.14063-0.30859 0.16016-30.969 16.445-65.855 16.445-34.719 0-65.555-16.293-65.859-16.457-0.14844-0.078125-0.29688-0.070313-0.44531-0.14062-0.55078-0.25391-1.1289-0.38672-1.7227-0.52344-0.53516-0.13281-1.043-0.28906-1.5938-0.30469-0.54297-0.027344-1.0508 0.085937-1.5938 0.16797-0.57031 0.078124-1.1367 0.13281-1.6797 0.32422-0.48828 0.17578-0.91797 0.47266-1.3828 0.73438-0.53516 0.30469-1.0508 0.58594-1.5156 1.0078-0.12109 0.10547-0.26953 0.14062-0.39453 0.25391l-11.312 11.316v-22.629c0-38.586 31.402-69.984 70-69.984zm-70 148.75v-31.395l19.285-19.285c11.453 5.2148 38.113 15.664 68.215 15.664s56.762-10.449 68.215-15.664l19.285 19.285v31.395c0 48.242-39.254 87.484-87.5 87.484s-87.5-39.242-87.5-87.484zm87.5 104.98c12.285 0 24.035-2.2305 35-6.125v11.27l-11.113 11.105-21.121-7.043c-0.31641-0.10547-0.62891-0.050781-0.95312-0.12109-0.59375-0.13281-1.1797-0.21875-1.8125-0.21875-0.62109 0-1.207 0.097656-1.8125 0.21875-0.31641 0.070312-0.62891 0.007812-0.95312 0.12109l-21.121 7.043-11.113-11.105v-11.27c10.965 3.8945 22.715 6.125 35 6.125zm-122.5 61.25c0-24.125 19.625-43.75 43.75-43.75l31.379 0.015625 14.938 14.918c0.14062 0.14062 0.32422 0.18359 0.47266 0.30469 0.57031 0.51562 1.1992 0.91016 1.8906 1.2617 0.28125 0.14062 0.54297 0.30469 0.83203 0.42188 0.94922 0.35156 1.9453 0.57812 2.9883 0.57812 0.91016 0 1.8477-0.14844 2.7656-0.45312l23.484-7.8242 23.484 7.832c0.91797 0.29687 1.8555 0.44531 2.7656 0.44531 1.043 0 2.0391-0.22656 3-0.57812 0.29688-0.11328 0.55078-0.28125 0.83203-0.42188 0.69141-0.33984 1.3125-0.74219 1.8906-1.2617 0.14844-0.13281 0.33203-0.17578 0.47266-0.30469l14.938-14.918 31.367-0.015625c24.125 0 43.75 19.625 43.75 43.75v52.5h-185.35c0.97266-2.7383 1.6016-5.6523 1.6016-8.7148v-17.5c0-4.8398-3.9102-8.75-8.75-8.75h-52.5zm43.75 35.035v8.75c0 4.7695-3.832 8.6172-8.5742 8.7148h-63.016c0.96094-2.7305 1.5938-5.6172 1.5938-8.6641 0-0.027344 0.015625-0.042969 0.015625-0.070313v-8.7344zm-279.99-148.75h183.75c4.8281 0 8.75 3.9219 8.75 8.75v131.21c0 0.015624-0.007812 0.027343-0.007812 0.042968s0.007812 0.027344 0.007812 0.042969v17.414c0 0.015624-0.007812 0.027343-0.007812 0.042968 0 4.7695-3.832 8.6172-8.5742 8.7148h-184c-4.7852-0.050781-8.6641-3.9297-8.6641-8.7344v-148.73c0-4.832 3.9219-8.75 8.75-8.75zm-26.258 183.71h17.414c0.035157 0 0.050782 0.015625 0.085938 0.015625h183.65c0.035156 0 0.0625 0.015625 0.085937 0.015625l96.262 0.003906c0.12109 0 0.21875-0.035156 0.33984-0.035156h218.23c0.0625 0 0.11328 0.035156 0.17578 0.035156s0.11328-0.035156 0.17578-0.035156h8.5742v17.5h-525z"/>
  <path d="m472.76 402.5c4.8281 0 8.75-3.9102 8.75-8.75s-3.9219-8.75-8.75-8.75h-0.085938c-4.8281 0-8.6992 3.9102-8.6992 8.75s3.957 8.75 8.7852 8.75z"/>
  <path d="m472.76 367.5c4.8281 0 8.75-3.9102 8.75-8.75s-3.9219-8.75-8.75-8.75h-0.085938c-4.8281 0-8.6992 3.9102-8.6992 8.75s3.957 8.75 8.7852 8.75z"/>
  <path d="m197.16 200.79 6.6484 6.6484c1.6367 1.6484 3.8672 2.5664 6.1875 2.5664 2.3281 0 4.5508-0.91797 6.1875-2.5625l8.0078-8.0156c47.719-8.8828 82.055-49.973 82.055-98.797 0-55.484-45.141-100.62-100.62-100.62s-100.62 45.141-100.62 100.62c0 52.484 40.215 95.84 92.164 100.16zm8.4609-183.29c45.832 0 83.125 37.293 83.125 83.125 0 41.125-29.496 75.617-70.141 81.996-1.8281 0.28906-3.5156 1.1562-4.8281 2.457l-3.7812 3.8008-2.7812-2.7812c-1.5391-1.5391-3.5859-2.4414-5.75-2.5547-44.285-2.1992-78.969-38.617-78.969-82.918 0-45.832 37.293-83.125 83.125-83.125z"/>
  <path d="m234.44 128.58c1.707 1.707 3.9453 2.5625 6.1875 2.5625 2.2383 0 4.4805-0.85938 6.1875-2.5625l21.77-21.77c0.035157-0.035156 0.070313-0.035156 0.10547-0.070312 1.7148-1.707 2.5625-3.957 2.5625-6.2031 0-2.25-0.84766-4.4883-2.5625-6.2031-0.035156-0.035157-0.070312-0.035157-0.10547-0.070313l-21.77-21.789c-3.4219-3.4219-8.9531-3.4219-12.371 0-3.4219 3.4141-3.4219 8.9531 0 12.371l15.672 15.688-15.672 15.672c-3.4258 3.4219-3.4258 8.9609-0.003906 12.375z"/>
  <path d="m164.44 128.58c1.707 1.707 3.9453 2.5625 6.1875 2.5625 2.2383 0 4.4805-0.85938 6.1875-2.5625 3.4219-3.4219 3.4219-8.9531 0-12.371l-15.672-15.672 15.672-15.688c3.4219-3.4219 3.4219-8.9609 0-12.371-3.4219-3.4219-8.9531-3.4219-12.371 0l-21.77 21.789c-0.035156 0.035157-0.070313 0.035157-0.10547 0.070313-1.7188 1.7188-2.5664 3.9492-2.5664 6.1992s0.84766 4.4961 2.5625 6.2031c0.035156 0.035156 0.070312 0.035156 0.10547 0.070312z"/>
  <path d="m189.74 148.2c0.91797 0.30469 1.8555 0.45312 2.7656 0.45312 3.668 0 7.0859-2.3203 8.2969-5.9844l26.25-78.785c1.5312-4.5859-0.94531-9.5469-5.5312-11.07-4.6211-1.5469-9.5547 0.94531-11.07 5.5312l-26.25 78.785c-1.5195 4.5859 0.95703 9.5469 5.5391 11.07z"/>
  <use x="70" y="691.25" xlink:href="#l"/>
  <use x="102.109375" y="691.25" xlink:href="#d"/>
  <use x="123.683594" y="691.25" xlink:href="#c"/>
  <use x="153.355469" y="691.25" xlink:href="#a"/>
  <use x="182.878906" y="691.25" xlink:href="#b"/>
  <use x="203.792969" y="691.25" xlink:href="#c"/>
  <use x="233.464844" y="691.25" xlink:href="#i"/>
  <use x="280.011719" y="691.25" xlink:href="#h"/>
  <use x="311.328125" y="691.25" xlink:href="#g"/>
  <use x="355.078125" y="691.25" xlink:href="#f"/>
  <use x="370.078125" y="691.25" xlink:href="#a"/>
  <use x="399.597656" y="691.25" xlink:href="#e"/>
  <use x="425.640625" y="691.25" xlink:href="#b"/>
  <use x="446.554688" y="691.25" xlink:href="#e"/>
  <use x="472.59375" y="691.25" xlink:href="#k"/>
  <use x="503.910156" y="691.25" xlink:href="#a"/>
  <use x="533.433594" y="691.25" xlink:href="#d"/>
  <use x="555.007812" y="691.25" xlink:href="#j"/>
 </g>
</svg>
